<svg width="17" height="17" viewBox="0 0 17 17" fill="none" xmlns="http://www.w3.org/2000/svg">
<g clip-path="url(#clip0_1636_251)">
<path d="M15.5833 11.9849V14.1099C15.5841 14.3072 15.5437 14.5024 15.4647 14.6832C15.3857 14.8639 15.2697 15.0262 15.1244 15.1596C14.979 15.2929 14.8074 15.3945 14.6205 15.4577C14.4336 15.5209 14.2356 15.5443 14.0392 15.5266C11.8595 15.2897 9.76578 14.5449 7.92624 13.352C6.21479 12.2645 4.76377 10.8134 3.67624 9.10199C2.47914 7.25409 1.73417 5.15019 1.50166 2.96074C1.48396 2.76486 1.50724 2.56744 1.57001 2.38106C1.63279 2.19467 1.73369 2.02339 1.86629 1.87814C1.99888 1.73288 2.16027 1.61683 2.34018 1.53736C2.52009 1.45789 2.71457 1.41676 2.91124 1.41657H5.03624C5.38 1.41319 5.71326 1.53492 5.97391 1.75907C6.23455 1.98323 6.4048 2.29451 6.45291 2.63491C6.5426 3.31495 6.70894 3.98267 6.94874 4.62532C7.04404 4.87885 7.06467 5.15439 7.00818 5.41928C6.95168 5.68417 6.82044 5.92732 6.62999 6.11991L5.73041 7.01949C6.73876 8.79283 8.20707 10.2611 9.98041 11.2695L10.88 10.3699C11.0726 10.1795 11.3157 10.0482 11.5806 9.99172C11.8455 9.93523 12.121 9.95585 12.3746 10.0512C13.0172 10.291 13.6849 10.4573 14.365 10.547C14.7091 10.5955 15.0233 10.7688 15.248 11.034C15.4726 11.2991 15.5919 11.6375 15.5833 11.9849Z" stroke="#F4B200" stroke-linecap="round" stroke-linejoin="round"/>
</g>
<defs>
<clipPath id="clip0_1636_251">
<rect width="17" height="17" fill="white"/>
</clipPath>
</defs>
</svg>
